<mxfile host="app.diagrams.net" modified="2024-03-25T17:43:18.157Z" agent="Mozilla/5.0 (Windows NT 10.0; Win64; x64) AppleWebKit/537.36 (KHTML, like Gecko) Chrome/122.0.0.0 Safari/537.36 OPR/108.0.0.0" etag="rKSl5oKWOIQVpYSjvaac" version="24.1.0" type="github">
  <diagram name="PÃ¡gina-1" id="SHDdzJm7RU_0ccHbA293">
    <mxGraphModel dx="1772" dy="338" grid="1" gridSize="10" guides="1" tooltips="1" connect="1" arrows="1" fold="1" page="1" pageScale="1" pageWidth="827" pageHeight="1169" math="0" shadow="0">
      <root>
        <mxCell id="0" />
        <mxCell id="1" parent="0" />
        <mxCell id="0T-1jv2mqkcWu_NawCD7-2" value="" style="endArrow=none;html=1;rounded=0;exitX=0.25;exitY=0;exitDx=0;exitDy=0;" edge="1" parent="1" target="0T-1jv2mqkcWu_NawCD7-3">
          <mxGeometry relative="1" as="geometry">
            <mxPoint x="105" y="120" as="sourcePoint" />
            <mxPoint x="100" y="60" as="targetPoint" />
          </mxGeometry>
        </mxCell>
        <mxCell id="0T-1jv2mqkcWu_NawCD7-3" value="clindrada" style="ellipse;whiteSpace=wrap;html=1;align=center;" vertex="1" parent="1">
          <mxGeometry x="55" y="40" width="100" height="40" as="geometry" />
        </mxCell>
        <mxCell id="0T-1jv2mqkcWu_NawCD7-4" value="" style="endArrow=none;html=1;rounded=0;exitX=0.75;exitY=0;exitDx=0;exitDy=0;edgeStyle=elbowEdgeStyle;" edge="1" parent="1" target="0T-1jv2mqkcWu_NawCD7-5">
          <mxGeometry relative="1" as="geometry">
            <mxPoint x="155" y="120" as="sourcePoint" />
            <mxPoint x="200" y="70" as="targetPoint" />
          </mxGeometry>
        </mxCell>
        <mxCell id="0T-1jv2mqkcWu_NawCD7-5" value="marca" style="ellipse;whiteSpace=wrap;html=1;align=center;" vertex="1" parent="1">
          <mxGeometry x="170" y="40" width="100" height="40" as="geometry" />
        </mxCell>
        <mxCell id="0T-1jv2mqkcWu_NawCD7-6" value="" style="endArrow=none;html=1;rounded=0;exitX=1;exitY=0.5;exitDx=0;exitDy=0;" edge="1" parent="1" target="0T-1jv2mqkcWu_NawCD7-7">
          <mxGeometry relative="1" as="geometry">
            <mxPoint x="180" y="140" as="sourcePoint" />
            <mxPoint x="155" y="200" as="targetPoint" />
            <Array as="points">
              <mxPoint x="230" y="140" />
            </Array>
          </mxGeometry>
        </mxCell>
        <mxCell id="0T-1jv2mqkcWu_NawCD7-7" value="modelo" style="ellipse;whiteSpace=wrap;html=1;align=center;" vertex="1" parent="1">
          <mxGeometry x="193" y="150" width="75" height="40" as="geometry" />
        </mxCell>
        <mxCell id="0T-1jv2mqkcWu_NawCD7-8" value="" style="endArrow=none;html=1;rounded=0;exitX=0.25;exitY=1;exitDx=0;exitDy=0;edgeStyle=elbowEdgeStyle;" edge="1" parent="1" target="0T-1jv2mqkcWu_NawCD7-9">
          <mxGeometry relative="1" as="geometry">
            <mxPoint x="105" y="160" as="sourcePoint" />
            <mxPoint x="105" y="210" as="targetPoint" />
          </mxGeometry>
        </mxCell>
        <mxCell id="0T-1jv2mqkcWu_NawCD7-9" value="num_serie" style="ellipse;whiteSpace=wrap;html=1;align=center;fontStyle=4;" vertex="1" parent="1">
          <mxGeometry x="-10" y="180" width="100" height="40" as="geometry" />
        </mxCell>
        <mxCell id="0T-1jv2mqkcWu_NawCD7-10" value="" style="endArrow=none;html=1;rounded=0;exitX=0;exitY=0.5;exitDx=0;exitDy=0;" edge="1" parent="1" target="0T-1jv2mqkcWu_NawCD7-11">
          <mxGeometry relative="1" as="geometry">
            <mxPoint x="80" y="140" as="sourcePoint" />
            <mxPoint x="30" y="140" as="targetPoint" />
          </mxGeometry>
        </mxCell>
        <mxCell id="0T-1jv2mqkcWu_NawCD7-11" value="velocidad_max" style="ellipse;whiteSpace=wrap;html=1;align=center;" vertex="1" parent="1">
          <mxGeometry x="-30" y="120" width="90" height="40" as="geometry" />
        </mxCell>
        <mxCell id="0T-1jv2mqkcWu_NawCD7-14" value="legajo" style="ellipse;whiteSpace=wrap;html=1;align=center;fontStyle=4;" vertex="1" parent="1">
          <mxGeometry x="182.5" y="355" width="65" height="30" as="geometry" />
        </mxCell>
        <mxCell id="0T-1jv2mqkcWu_NawCD7-15" value="" style="endArrow=none;html=1;rounded=0;exitX=1;exitY=0;exitDx=0;exitDy=0;edgeStyle=elbowEdgeStyle;" edge="1" parent="1" target="0T-1jv2mqkcWu_NawCD7-16">
          <mxGeometry relative="1" as="geometry">
            <mxPoint x="180" y="320" as="sourcePoint" />
            <mxPoint x="190" y="280" as="targetPoint" />
            <Array as="points" />
          </mxGeometry>
        </mxCell>
        <mxCell id="0T-1jv2mqkcWu_NawCD7-16" value="nombre" style="ellipse;whiteSpace=wrap;html=1;align=center;" vertex="1" parent="1">
          <mxGeometry x="155" y="270" width="60" height="30" as="geometry" />
        </mxCell>
        <mxCell id="0T-1jv2mqkcWu_NawCD7-17" value="" style="endArrow=none;html=1;rounded=0;exitX=0.25;exitY=1;exitDx=0;exitDy=0;" edge="1" parent="1" source="0T-1jv2mqkcWu_NawCD7-49" target="0T-1jv2mqkcWu_NawCD7-18">
          <mxGeometry relative="1" as="geometry">
            <mxPoint x="105" y="360" as="sourcePoint" />
            <mxPoint x="27.5" y="440" as="targetPoint" />
            <Array as="points">
              <mxPoint x="110" y="380" />
              <mxPoint x="30" y="380" />
            </Array>
          </mxGeometry>
        </mxCell>
        <mxCell id="0T-1jv2mqkcWu_NawCD7-18" value="horarios" style="ellipse;shape=doubleEllipse;margin=3;whiteSpace=wrap;html=1;align=center;" vertex="1" parent="1">
          <mxGeometry x="-7.5" y="410" width="75" height="30" as="geometry" />
        </mxCell>
        <mxCell id="0T-1jv2mqkcWu_NawCD7-19" value="" style="endArrow=none;html=1;rounded=0;exitX=0;exitY=1;exitDx=0;exitDy=0;edgeStyle=elbowEdgeStyle;entryX=0.5;entryY=0;entryDx=0;entryDy=0;" edge="1" parent="1" source="0T-1jv2mqkcWu_NawCD7-18" target="0T-1jv2mqkcWu_NawCD7-20">
          <mxGeometry relative="1" as="geometry">
            <mxPoint x="12.5" y="370" as="sourcePoint" />
            <mxPoint x="-37.5" y="490" as="targetPoint" />
            <Array as="points">
              <mxPoint x="-39.5" y="440" />
            </Array>
          </mxGeometry>
        </mxCell>
        <mxCell id="0T-1jv2mqkcWu_NawCD7-20" value="dia_de_semana" style="ellipse;whiteSpace=wrap;html=1;align=center;" vertex="1" parent="1">
          <mxGeometry x="-90" y="450" width="100" height="40" as="geometry" />
        </mxCell>
        <mxCell id="0T-1jv2mqkcWu_NawCD7-21" value="" style="endArrow=none;html=1;rounded=0;exitX=1;exitY=1;exitDx=0;exitDy=0;edgeStyle=elbowEdgeStyle;" edge="1" parent="1" source="0T-1jv2mqkcWu_NawCD7-18" target="0T-1jv2mqkcWu_NawCD7-22">
          <mxGeometry relative="1" as="geometry">
            <mxPoint x="12.5" y="370" as="sourcePoint" />
            <mxPoint x="54.5" y="470" as="targetPoint" />
            <Array as="points">
              <mxPoint x="92.5" y="436" />
            </Array>
          </mxGeometry>
        </mxCell>
        <mxCell id="0T-1jv2mqkcWu_NawCD7-22" value="rango_de_horas" style="ellipse;whiteSpace=wrap;html=1;align=center;" vertex="1" parent="1">
          <mxGeometry x="42.5" y="450" width="110" height="40" as="geometry" />
        </mxCell>
        <mxCell id="0T-1jv2mqkcWu_NawCD7-24" value="Cliente" style="shape=ext;margin=3;double=1;whiteSpace=wrap;html=1;align=center;" vertex="1" parent="1">
          <mxGeometry x="540" y="320" width="100" height="40" as="geometry" />
        </mxCell>
        <mxCell id="0T-1jv2mqkcWu_NawCD7-25" value="" style="endArrow=none;html=1;rounded=0;exitX=0.25;exitY=0;exitDx=0;exitDy=0;edgeStyle=elbowEdgeStyle;" edge="1" parent="1" source="0T-1jv2mqkcWu_NawCD7-24" target="0T-1jv2mqkcWu_NawCD7-26">
          <mxGeometry relative="1" as="geometry">
            <mxPoint x="320" y="340" as="sourcePoint" />
            <mxPoint x="565" y="290" as="targetPoint" />
          </mxGeometry>
        </mxCell>
        <mxCell id="0T-1jv2mqkcWu_NawCD7-26" value="usuario" style="ellipse;whiteSpace=wrap;html=1;align=center;fontStyle=4;" vertex="1" parent="1">
          <mxGeometry x="532" y="277" width="65" height="30" as="geometry" />
        </mxCell>
        <mxCell id="0T-1jv2mqkcWu_NawCD7-27" value="" style="endArrow=none;html=1;rounded=0;exitX=0.75;exitY=0;exitDx=0;exitDy=0;edgeStyle=elbowEdgeStyle;entryX=0.5;entryY=1;entryDx=0;entryDy=0;" edge="1" parent="1" source="0T-1jv2mqkcWu_NawCD7-24" target="0T-1jv2mqkcWu_NawCD7-28">
          <mxGeometry relative="1" as="geometry">
            <mxPoint x="612" y="320" as="sourcePoint" />
            <mxPoint x="642" y="300" as="targetPoint" />
            <Array as="points">
              <mxPoint x="615" y="310" />
            </Array>
          </mxGeometry>
        </mxCell>
        <mxCell id="0T-1jv2mqkcWu_NawCD7-28" value="direccion" style="ellipse;whiteSpace=wrap;html=1;align=center;" vertex="1" parent="1">
          <mxGeometry x="610" y="277" width="70" height="30" as="geometry" />
        </mxCell>
        <mxCell id="0T-1jv2mqkcWu_NawCD7-29" value="" style="endArrow=none;html=1;rounded=0;exitX=1;exitY=0.25;exitDx=0;exitDy=0;" edge="1" parent="1" source="0T-1jv2mqkcWu_NawCD7-24" target="0T-1jv2mqkcWu_NawCD7-30">
          <mxGeometry relative="1" as="geometry">
            <mxPoint x="650" y="330" as="sourcePoint" />
            <mxPoint x="690" y="330" as="targetPoint" />
          </mxGeometry>
        </mxCell>
        <mxCell id="0T-1jv2mqkcWu_NawCD7-30" value="nombre" style="ellipse;whiteSpace=wrap;html=1;align=center;" vertex="1" parent="1">
          <mxGeometry x="670" y="315" width="60" height="30" as="geometry" />
        </mxCell>
        <mxCell id="0T-1jv2mqkcWu_NawCD7-31" value="" style="endArrow=none;html=1;rounded=0;exitX=0.75;exitY=1;exitDx=0;exitDy=0;" edge="1" parent="1" source="0T-1jv2mqkcWu_NawCD7-24" target="0T-1jv2mqkcWu_NawCD7-32">
          <mxGeometry relative="1" as="geometry">
            <mxPoint x="560" y="370" as="sourcePoint" />
            <mxPoint x="615" y="390" as="targetPoint" />
            <Array as="points">
              <mxPoint x="615" y="380" />
              <mxPoint x="680" y="380" />
            </Array>
          </mxGeometry>
        </mxCell>
        <mxCell id="0T-1jv2mqkcWu_NawCD7-32" value="fecha_nacimiento" style="ellipse;whiteSpace=wrap;html=1;align=center;" vertex="1" parent="1">
          <mxGeometry x="627" y="389" width="105" height="40" as="geometry" />
        </mxCell>
        <mxCell id="0T-1jv2mqkcWu_NawCD7-33" value="" style="endArrow=none;html=1;rounded=0;exitX=1;exitY=0.5;exitDx=0;exitDy=0;" edge="1" parent="1" target="0T-1jv2mqkcWu_NawCD7-34">
          <mxGeometry relative="1" as="geometry">
            <mxPoint x="180" y="340" as="sourcePoint" />
            <mxPoint x="340" y="340" as="targetPoint" />
          </mxGeometry>
        </mxCell>
        <mxCell id="0T-1jv2mqkcWu_NawCD7-34" value="atiende" style="shape=rhombus;perimeter=rhombusPerimeter;whiteSpace=wrap;html=1;align=center;" vertex="1" parent="1">
          <mxGeometry x="300" y="310" width="120" height="60" as="geometry" />
        </mxCell>
        <mxCell id="0T-1jv2mqkcWu_NawCD7-35" value="" style="endArrow=none;html=1;rounded=0;exitX=1;exitY=0.5;exitDx=0;exitDy=0;entryX=0;entryY=0.5;entryDx=0;entryDy=0;" edge="1" parent="1" source="0T-1jv2mqkcWu_NawCD7-34" target="0T-1jv2mqkcWu_NawCD7-24">
          <mxGeometry relative="1" as="geometry">
            <mxPoint x="300" y="280" as="sourcePoint" />
            <mxPoint x="460" y="280" as="targetPoint" />
          </mxGeometry>
        </mxCell>
        <mxCell id="0T-1jv2mqkcWu_NawCD7-36" value="(0,n)" style="text;html=1;align=center;verticalAlign=middle;resizable=0;points=[];autosize=1;strokeColor=none;fillColor=none;" vertex="1" parent="1">
          <mxGeometry x="180" y="315" width="50" height="30" as="geometry" />
        </mxCell>
        <mxCell id="0T-1jv2mqkcWu_NawCD7-37" value="(1,n)" style="text;html=1;align=center;verticalAlign=middle;resizable=0;points=[];autosize=1;strokeColor=none;fillColor=none;" vertex="1" parent="1">
          <mxGeometry x="490" y="315" width="50" height="30" as="geometry" />
        </mxCell>
        <mxCell id="0T-1jv2mqkcWu_NawCD7-39" value="asignada" style="shape=rhombus;double=1;perimeter=rhombusPerimeter;whiteSpace=wrap;html=1;align=center;" vertex="1" parent="1">
          <mxGeometry x="89" y="220" width="90" height="50" as="geometry" />
        </mxCell>
        <mxCell id="0T-1jv2mqkcWu_NawCD7-40" value="" style="endArrow=none;html=1;rounded=0;exitX=0.5;exitY=1;exitDx=0;exitDy=0;entryX=0.5;entryY=0;entryDx=0;entryDy=0;edgeStyle=elbowEdgeStyle;" edge="1" parent="1" source="0T-1jv2mqkcWu_NawCD7-39" target="0T-1jv2mqkcWu_NawCD7-49">
          <mxGeometry relative="1" as="geometry">
            <mxPoint x="190" y="280" as="sourcePoint" />
            <mxPoint x="130" y="320" as="targetPoint" />
          </mxGeometry>
        </mxCell>
        <mxCell id="0T-1jv2mqkcWu_NawCD7-41" value="(1,1)" style="text;html=1;align=center;verticalAlign=middle;resizable=0;points=[];autosize=1;strokeColor=none;fillColor=none;" vertex="1" parent="1">
          <mxGeometry x="85" y="288" width="50" height="30" as="geometry" />
        </mxCell>
        <mxCell id="0T-1jv2mqkcWu_NawCD7-42" value="(1,1)" style="text;html=1;align=center;verticalAlign=middle;resizable=0;points=[];autosize=1;strokeColor=none;fillColor=none;" vertex="1" parent="1">
          <mxGeometry x="125" y="158" width="50" height="30" as="geometry" />
        </mxCell>
        <mxCell id="0T-1jv2mqkcWu_NawCD7-44" value="Zona" style="whiteSpace=wrap;html=1;align=center;" vertex="1" parent="1">
          <mxGeometry x="310" y="500" width="100" height="40" as="geometry" />
        </mxCell>
        <mxCell id="0T-1jv2mqkcWu_NawCD7-45" value="" style="endArrow=none;html=1;rounded=0;exitX=0.25;exitY=1;exitDx=0;exitDy=0;" edge="1" parent="1" source="0T-1jv2mqkcWu_NawCD7-44" target="0T-1jv2mqkcWu_NawCD7-48">
          <mxGeometry relative="1" as="geometry">
            <mxPoint x="260" y="480" as="sourcePoint" />
            <mxPoint x="335" y="580" as="targetPoint" />
            <Array as="points">
              <mxPoint x="335" y="560" />
              <mxPoint x="310" y="560" />
            </Array>
          </mxGeometry>
        </mxCell>
        <mxCell id="0T-1jv2mqkcWu_NawCD7-46" value="" style="endArrow=none;html=1;rounded=0;exitX=0.75;exitY=1;exitDx=0;exitDy=0;" edge="1" parent="1" source="0T-1jv2mqkcWu_NawCD7-44" target="0T-1jv2mqkcWu_NawCD7-47">
          <mxGeometry relative="1" as="geometry">
            <mxPoint x="260" y="480" as="sourcePoint" />
            <mxPoint x="385" y="580" as="targetPoint" />
            <Array as="points">
              <mxPoint x="385" y="560" />
              <mxPoint x="428" y="560" />
            </Array>
          </mxGeometry>
        </mxCell>
        <mxCell id="0T-1jv2mqkcWu_NawCD7-47" value="tamaÃ±o" style="ellipse;whiteSpace=wrap;html=1;align=center;" vertex="1" parent="1">
          <mxGeometry x="390" y="585" width="75" height="30" as="geometry" />
        </mxCell>
        <mxCell id="0T-1jv2mqkcWu_NawCD7-48" value="nombre" style="ellipse;whiteSpace=wrap;html=1;align=center;fontStyle=4;" vertex="1" parent="1">
          <mxGeometry x="270" y="584" width="80" height="30" as="geometry" />
        </mxCell>
        <mxCell id="0T-1jv2mqkcWu_NawCD7-49" value="Repartidor" style="shape=ext;margin=3;double=1;whiteSpace=wrap;html=1;align=center;" vertex="1" parent="1">
          <mxGeometry x="85" y="315" width="100" height="40" as="geometry" />
        </mxCell>
        <mxCell id="0T-1jv2mqkcWu_NawCD7-50" value="" style="endArrow=none;html=1;rounded=0;exitX=0;exitY=0.5;exitDx=0;exitDy=0;" edge="1" parent="1" source="0T-1jv2mqkcWu_NawCD7-44" target="0T-1jv2mqkcWu_NawCD7-51">
          <mxGeometry relative="1" as="geometry">
            <mxPoint x="100" y="380" as="sourcePoint" />
            <mxPoint x="260" y="380" as="targetPoint" />
            <Array as="points">
              <mxPoint x="215" y="520" />
            </Array>
          </mxGeometry>
        </mxCell>
        <mxCell id="0T-1jv2mqkcWu_NawCD7-51" value="trabaja" style="shape=rhombus;double=1;perimeter=rhombusPerimeter;whiteSpace=wrap;html=1;align=center;" vertex="1" parent="1">
          <mxGeometry x="155" y="420" width="120" height="60" as="geometry" />
        </mxCell>
        <mxCell id="0T-1jv2mqkcWu_NawCD7-53" value="" style="shape=link;html=1;rounded=0;exitX=0.5;exitY=1;exitDx=0;exitDy=0;entryX=0.5;entryY=0;entryDx=0;entryDy=0;" edge="1" parent="1" source="0T-1jv2mqkcWu_NawCD7-49" target="0T-1jv2mqkcWu_NawCD7-51">
          <mxGeometry relative="1" as="geometry">
            <mxPoint x="100" y="380" as="sourcePoint" />
            <mxPoint x="260" y="380" as="targetPoint" />
            <Array as="points">
              <mxPoint x="135" y="390" />
              <mxPoint x="215" y="390" />
            </Array>
          </mxGeometry>
        </mxCell>
        <mxCell id="0T-1jv2mqkcWu_NawCD7-55" value="(1,1)" style="edgeLabel;html=1;align=center;verticalAlign=middle;resizable=0;points=[];" vertex="1" connectable="0" parent="0T-1jv2mqkcWu_NawCD7-53">
          <mxGeometry x="-0.2138" y="17" relative="1" as="geometry">
            <mxPoint x="-4" y="7" as="offset" />
          </mxGeometry>
        </mxCell>
        <mxCell id="0T-1jv2mqkcWu_NawCD7-56" value="(1,n)" style="text;html=1;align=center;verticalAlign=middle;resizable=0;points=[];autosize=1;strokeColor=none;fillColor=none;" vertex="1" parent="1">
          <mxGeometry x="260" y="490" width="50" height="30" as="geometry" />
        </mxCell>
        <mxCell id="0T-1jv2mqkcWu_NawCD7-57" value="" style="endArrow=none;html=1;rounded=0;exitX=1;exitY=0.5;exitDx=0;exitDy=0;" edge="1" parent="1" source="0T-1jv2mqkcWu_NawCD7-44" target="0T-1jv2mqkcWu_NawCD7-58">
          <mxGeometry relative="1" as="geometry">
            <mxPoint x="410" y="550" as="sourcePoint" />
            <mxPoint x="530" y="520" as="targetPoint" />
            <Array as="points">
              <mxPoint x="537" y="520" />
            </Array>
          </mxGeometry>
        </mxCell>
        <mxCell id="0T-1jv2mqkcWu_NawCD7-58" value="Pertenece" style="shape=rhombus;double=1;perimeter=rhombusPerimeter;whiteSpace=wrap;html=1;align=center;" vertex="1" parent="1">
          <mxGeometry x="477" y="420" width="120" height="60" as="geometry" />
        </mxCell>
        <mxCell id="0T-1jv2mqkcWu_NawCD7-60" value="" style="shape=link;html=1;rounded=0;exitX=0.5;exitY=0;exitDx=0;exitDy=0;entryX=0.5;entryY=1;entryDx=0;entryDy=0;" edge="1" parent="1" source="0T-1jv2mqkcWu_NawCD7-58" target="0T-1jv2mqkcWu_NawCD7-24">
          <mxGeometry relative="1" as="geometry">
            <mxPoint x="340" y="370" as="sourcePoint" />
            <mxPoint x="500" y="370" as="targetPoint" />
            <Array as="points">
              <mxPoint x="537" y="400" />
              <mxPoint x="590" y="400" />
            </Array>
          </mxGeometry>
        </mxCell>
        <mxCell id="0T-1jv2mqkcWu_NawCD7-62" value="(1,1)" style="text;html=1;align=center;verticalAlign=middle;resizable=0;points=[];autosize=1;strokeColor=none;fillColor=none;" vertex="1" parent="1">
          <mxGeometry x="410" y="490" width="50" height="30" as="geometry" />
        </mxCell>
        <mxCell id="0T-1jv2mqkcWu_NawCD7-63" value="(1,n)" style="text;html=1;align=center;verticalAlign=middle;resizable=0;points=[];autosize=1;strokeColor=none;fillColor=none;" vertex="1" parent="1">
          <mxGeometry x="545" y="358" width="50" height="30" as="geometry" />
        </mxCell>
        <mxCell id="0T-1jv2mqkcWu_NawCD7-64" value="" style="endArrow=none;html=1;rounded=0;entryX=0;entryY=0.5;entryDx=0;entryDy=0;exitX=0.75;exitY=1;exitDx=0;exitDy=0;" edge="1" parent="1" source="0T-1jv2mqkcWu_NawCD7-49" target="0T-1jv2mqkcWu_NawCD7-14">
          <mxGeometry relative="1" as="geometry">
            <mxPoint x="30" y="370" as="sourcePoint" />
            <mxPoint x="190" y="370" as="targetPoint" />
            <Array as="points">
              <mxPoint x="160" y="370" />
              <mxPoint x="180" y="370" />
            </Array>
          </mxGeometry>
        </mxCell>
        <mxCell id="0T-1jv2mqkcWu_NawCD7-65" value="" style="endArrow=none;html=1;rounded=0;exitX=0;exitY=0;exitDx=0;exitDy=0;entryX=1;entryY=0.5;entryDx=0;entryDy=0;" edge="1" parent="1" source="0T-1jv2mqkcWu_NawCD7-49" target="0T-1jv2mqkcWu_NawCD7-66">
          <mxGeometry relative="1" as="geometry">
            <mxPoint x="30" y="370" as="sourcePoint" />
            <mxPoint x="20" y="280" as="targetPoint" />
            <Array as="points">
              <mxPoint x="85" y="280" />
            </Array>
          </mxGeometry>
        </mxCell>
        <mxCell id="0T-1jv2mqkcWu_NawCD7-66" value="reemplaza" style="shape=rhombus;perimeter=rhombusPerimeter;whiteSpace=wrap;html=1;align=center;" vertex="1" parent="1">
          <mxGeometry x="-120" y="250" width="120" height="60" as="geometry" />
        </mxCell>
        <mxCell id="0T-1jv2mqkcWu_NawCD7-67" value="" style="endArrow=none;html=1;rounded=0;exitX=0.5;exitY=1;exitDx=0;exitDy=0;entryX=0;entryY=0.5;entryDx=0;entryDy=0;" edge="1" parent="1" source="0T-1jv2mqkcWu_NawCD7-66" target="0T-1jv2mqkcWu_NawCD7-49">
          <mxGeometry relative="1" as="geometry">
            <mxPoint x="30" y="370" as="sourcePoint" />
            <mxPoint x="20" y="350" as="targetPoint" />
            <Array as="points">
              <mxPoint x="-60" y="335" />
            </Array>
          </mxGeometry>
        </mxCell>
        <mxCell id="0T-1jv2mqkcWu_NawCD7-68" value="" style="endArrow=none;html=1;rounded=0;exitX=0;exitY=0;exitDx=0;exitDy=0;" edge="1" parent="1" source="0T-1jv2mqkcWu_NawCD7-66" target="0T-1jv2mqkcWu_NawCD7-69">
          <mxGeometry relative="1" as="geometry">
            <mxPoint x="-110" y="270" as="sourcePoint" />
            <mxPoint x="-70" y="230" as="targetPoint" />
          </mxGeometry>
        </mxCell>
        <mxCell id="0T-1jv2mqkcWu_NawCD7-69" value="repartidor_reemplazado" style="ellipse;whiteSpace=wrap;html=1;align=center;" vertex="1" parent="1">
          <mxGeometry x="-240" y="210" width="150" height="40" as="geometry" />
        </mxCell>
        <mxCell id="0T-1jv2mqkcWu_NawCD7-70" value="es reemplazado" style="text;html=1;align=center;verticalAlign=middle;resizable=0;points=[];autosize=1;strokeColor=none;fillColor=none;" vertex="1" parent="1">
          <mxGeometry x="-15" y="248" width="110" height="30" as="geometry" />
        </mxCell>
        <mxCell id="0T-1jv2mqkcWu_NawCD7-72" value="reemplaza a" style="text;html=1;align=center;verticalAlign=middle;resizable=0;points=[];autosize=1;strokeColor=none;fillColor=none;" vertex="1" parent="1">
          <mxGeometry x="-30" y="330" width="90" height="30" as="geometry" />
        </mxCell>
        <mxCell id="0T-1jv2mqkcWu_NawCD7-73" value="(1,1)" style="text;html=1;align=center;verticalAlign=middle;resizable=0;points=[];autosize=1;strokeColor=none;fillColor=none;" vertex="1" parent="1">
          <mxGeometry x="35" y="308" width="50" height="30" as="geometry" />
        </mxCell>
        <mxCell id="0T-1jv2mqkcWu_NawCD7-74" value="(1,n)" style="text;html=1;align=center;verticalAlign=middle;resizable=0;points=[];autosize=1;strokeColor=none;fillColor=none;" vertex="1" parent="1">
          <mxGeometry x="-10" y="277" width="50" height="30" as="geometry" />
        </mxCell>
        <mxCell id="0T-1jv2mqkcWu_NawCD7-75" value="Moto" style="shape=ext;margin=3;double=1;whiteSpace=wrap;html=1;align=center;" vertex="1" parent="1">
          <mxGeometry x="83" y="120" width="100" height="40" as="geometry" />
        </mxCell>
        <mxCell id="0T-1jv2mqkcWu_NawCD7-76" value="" style="shape=link;html=1;rounded=0;exitX=0.5;exitY=0;exitDx=0;exitDy=0;entryX=0.5;entryY=1;entryDx=0;entryDy=0;edgeStyle=elbowEdgeStyle;" edge="1" parent="1" source="0T-1jv2mqkcWu_NawCD7-39" target="0T-1jv2mqkcWu_NawCD7-75">
          <mxGeometry relative="1" as="geometry">
            <mxPoint x="170" y="210" as="sourcePoint" />
            <mxPoint x="330" y="210" as="targetPoint" />
          </mxGeometry>
        </mxCell>
      </root>
    </mxGraphModel>
  </diagram>
</mxfile>
